<?xml version="1.0" standalone="no"?><!DOCTYPE svg PUBLIC "-//W3C//DTD SVG 1.1//EN" "http://www.w3.org/Graphics/SVG/1.1/DTD/svg11.dtd"><svg t="1625054224460" class="icon" viewBox="0 0 1024 1024" version="1.1" xmlns="http://www.w3.org/2000/svg" p-id="2375" xmlns:xlink="http://www.w3.org/1999/xlink" width="800" height="800"><defs><style type="text/css"></style></defs><path d="M882.744889 459.150222v-0.028444L244.053333 21.134222l-0.199111 0.170667A73.784889 73.784889 0 0 0 192.853333 1.024c-40.704 0-73.699556 32.654222-73.699555 72.988444 0 22.158222-0.967111 65.507556 0 64.568889V950.044444c0 40.305778 32.995556 72.96 73.671111 72.96a73.671111 73.671111 0 0 0 51.143111-20.48l0.056889 0.056889 638.72-437.987555v-0.028445A72.448 72.448 0 0 0 905.272889 512v-0.170667-0.142222c0-20.650667-8.647111-39.253333-22.528-52.536889z" fill="#FFFFFF" p-id="2376"></path></svg>