<?xml version="1.0" standalone="no"?><!DOCTYPE svg PUBLIC "-//W3C//DTD SVG 1.1//EN" "http://www.w3.org/Graphics/SVG/1.1/DTD/svg11.dtd"><svg t="1625053794986" class="icon" viewBox="0 0 1194 1024" version="1.1" xmlns="http://www.w3.org/2000/svg" p-id="4217" xmlns:xlink="http://www.w3.org/1999/xlink" width="932.8125" height="800"><defs><style type="text/css"></style></defs><path d="M417.877333 618.837333a128 128 0 0 1 0-213.674666L953.514667 51.797333C1038.506667-4.352 1152 56.661333 1152 158.634667v706.730666c0 101.973333-113.408 162.986667-198.485333 106.837334L417.877333 618.837333zM256 938.666667a85.333333 85.333333 0 0 1-85.333333 85.333333H85.333333a85.333333 85.333333 0 0 1-85.333333-85.333333V85.333333a85.333333 85.333333 0 0 1 85.333333-85.333333h85.333334a85.333333 85.333333 0 0 1 85.333333 85.333333v853.333334z" fill="#FFFFFF" p-id="4218"></path></svg>